<mxGraphModel dx="2021" dy="494" grid="1" gridSize="10" guides="1" tooltips="1" connect="1" arrows="1" fold="1" page="1" pageScale="1" pageWidth="1169" pageHeight="1654" math="0" shadow="0">
  <root>
    <mxCell id="0" />
    <mxCell id="1" parent="0" />
    <mxCell id="SkLQpkn3maGRPMSLVxLG-39" value="Клиент" style="shape=umlActor;verticalLabelPosition=bottom;verticalAlign=top;html=1;outlineConnect=0;" parent="1" vertex="1">
      <mxGeometry x="-41" y="102.5" width="30" height="60" as="geometry" />
    </mxCell>
    <mxCell id="SkLQpkn3maGRPMSLVxLG-42" value="добавление&lt;br&gt;типа животного" style="html=1;dashed=0;whitespace=wrap;" parent="1" vertex="1">
      <mxGeometry x="310" y="107.5" width="100" height="50" as="geometry" />
    </mxCell>
    <mxCell id="SkLQpkn3maGRPMSLVxLG-47" value="" style="endArrow=classic;html=1;" parent="1" source="SkLQpkn3maGRPMSLVxLG-40" target="SkLQpkn3maGRPMSLVxLG-42" edge="1">
      <mxGeometry width="50" height="50" relative="1" as="geometry">
        <mxPoint x="410" y="138.5" as="sourcePoint" />
        <mxPoint x="460" y="88.5" as="targetPoint" />
      </mxGeometry>
    </mxCell>
    <mxCell id="SkLQpkn3maGRPMSLVxLG-49" value="Оператор" style="shape=umlActor;verticalLabelPosition=bottom;verticalAlign=top;html=1;outlineConnect=0;" parent="1" vertex="1">
      <mxGeometry x="1010" y="106.25" width="30" height="60" as="geometry" />
    </mxCell>
    <mxCell id="SkLQpkn3maGRPMSLVxLG-51" value="" style="endArrow=classic;html=1;edgeStyle=orthogonalEdgeStyle;" parent="1" source="SkLQpkn3maGRPMSLVxLG-40" target="INR5gjYaSOHBbctPgWJO-2" edge="1">
      <mxGeometry width="50" height="50" relative="1" as="geometry">
        <mxPoint x="411" y="201" as="sourcePoint" />
        <mxPoint x="496" y="201" as="targetPoint" />
        <Array as="points">
          <mxPoint x="227" y="26" />
        </Array>
      </mxGeometry>
    </mxCell>
    <mxCell id="SkLQpkn3maGRPMSLVxLG-52" value="модерация&amp;nbsp;&amp;nbsp;&lt;br&gt;обращения" style="html=1;dashed=0;whitespace=wrap;" parent="1" vertex="1">
      <mxGeometry x="730" y="110" width="100" height="50" as="geometry" />
    </mxCell>
    <mxCell id="SkLQpkn3maGRPMSLVxLG-57" value="" style="endArrow=none;html=1;endFill=0;" parent="1" source="SkLQpkn3maGRPMSLVxLG-49" target="INR5gjYaSOHBbctPgWJO-30" edge="1">
      <mxGeometry width="50" height="50" relative="1" as="geometry">
        <mxPoint x="980" y="136.25" as="sourcePoint" />
        <mxPoint x="940" y="150" as="targetPoint" />
      </mxGeometry>
    </mxCell>
    <mxCell id="SkLQpkn3maGRPMSLVxLG-71" value="вет. диетолог" style="shape=umlActor;verticalLabelPosition=bottom;verticalAlign=top;html=1;outlineConnect=0;" parent="1" vertex="1">
      <mxGeometry x="-41" y="405" width="30" height="60" as="geometry" />
    </mxCell>
    <mxCell id="zxGxXdGogj-dKgFZr41c-2" style="edgeStyle=orthogonalEdgeStyle;rounded=0;orthogonalLoop=1;jettySize=auto;html=1;endArrow=classic;endFill=1;" parent="1" source="SkLQpkn3maGRPMSLVxLG-74" target="INR5gjYaSOHBbctPgWJO-73" edge="1">
      <mxGeometry relative="1" as="geometry">
        <mxPoint x="200" y="400" as="targetPoint" />
      </mxGeometry>
    </mxCell>
    <mxCell id="SkLQpkn3maGRPMSLVxLG-74" value="составление плана питания" style="rounded=0;whiteSpace=wrap;html=1;" parent="1" vertex="1">
      <mxGeometry x="70" y="410" width="110" height="50" as="geometry" />
    </mxCell>
    <mxCell id="SkLQpkn3maGRPMSLVxLG-85" value="" style="endArrow=none;html=1;endFill=0;" parent="1" source="SkLQpkn3maGRPMSLVxLG-71" target="SkLQpkn3maGRPMSLVxLG-74" edge="1">
      <mxGeometry width="50" height="50" relative="1" as="geometry">
        <mxPoint x="-45.99615384615379" y="656.25" as="sourcePoint" />
        <mxPoint x="70" y="432.5" as="targetPoint" />
      </mxGeometry>
    </mxCell>
    <mxCell id="SkLQpkn3maGRPMSLVxLG-86" value="вет. врач" style="shape=umlActor;verticalLabelPosition=bottom;verticalAlign=top;html=1;outlineConnect=0;" parent="1" vertex="1">
      <mxGeometry x="1010" y="460" width="30" height="60" as="geometry" />
    </mxCell>
    <mxCell id="SkLQpkn3maGRPMSLVxLG-88" value="составление заключения" style="rounded=0;whiteSpace=wrap;html=1;fillColor=#f8cecc;strokeColor=#b85450;" parent="1" vertex="1">
      <mxGeometry x="724" y="920" width="120" height="60" as="geometry" />
    </mxCell>
    <mxCell id="SkLQpkn3maGRPMSLVxLG-89" value="составление плана лечения" style="rounded=0;whiteSpace=wrap;html=1;" parent="1" vertex="1">
      <mxGeometry x="554.0699999999999" y="390" width="111.87" height="50" as="geometry" />
    </mxCell>
    <mxCell id="SkLQpkn3maGRPMSLVxLG-100" value="рассмотрение&amp;nbsp;&lt;br&gt;обращения" style="rounded=0;whiteSpace=wrap;html=1;" parent="1" vertex="1">
      <mxGeometry x="844" y="465" width="106" height="50" as="geometry" />
    </mxCell>
    <mxCell id="SkLQpkn3maGRPMSLVxLG-102" value="составление заключения" style="rounded=0;whiteSpace=wrap;html=1;" parent="1" vertex="1">
      <mxGeometry x="724" y="920" width="120" height="60" as="geometry" />
    </mxCell>
    <mxCell id="SkLQpkn3maGRPMSLVxLG-40" value="составление &lt;br&gt;обращения" style="html=1;dashed=0;whitespace=wrap;" parent="1" vertex="1">
      <mxGeometry x="180" y="107.5" width="100" height="50" as="geometry" />
    </mxCell>
    <mxCell id="INR5gjYaSOHBbctPgWJO-2" value="обращение" style="html=1;dashed=0;whitespace=wrap;shape=partialRectangle;right=0;fillColor=#d5e8d4;strokeColor=#82b366;" parent="1" vertex="1">
      <mxGeometry x="367" y="1" width="110" height="50" as="geometry" />
    </mxCell>
    <mxCell id="INR5gjYaSOHBbctPgWJO-3" value="добавление &lt;br&gt;описания &lt;br&gt;проблемы" style="html=1;dashed=0;whitespace=wrap;" parent="1" vertex="1">
      <mxGeometry x="436" y="107.5" width="100" height="50" as="geometry" />
    </mxCell>
    <mxCell id="INR5gjYaSOHBbctPgWJO-4" value="" style="endArrow=classic;html=1;" parent="1" source="SkLQpkn3maGRPMSLVxLG-42" target="INR5gjYaSOHBbctPgWJO-3" edge="1">
      <mxGeometry width="50" height="50" relative="1" as="geometry">
        <mxPoint x="426" y="67.5" as="sourcePoint" />
        <mxPoint x="476" y="17.5" as="targetPoint" />
      </mxGeometry>
    </mxCell>
    <mxCell id="INR5gjYaSOHBbctPgWJO-5" value="" style="endArrow=classic;html=1;edgeStyle=orthogonalEdgeStyle;" parent="1" source="SkLQpkn3maGRPMSLVxLG-42" target="INR5gjYaSOHBbctPgWJO-2" edge="1">
      <mxGeometry width="50" height="50" relative="1" as="geometry">
        <mxPoint x="427" y="81" as="sourcePoint" />
        <mxPoint x="477" y="31" as="targetPoint" />
        <Array as="points">
          <mxPoint x="350" y="80" />
          <mxPoint x="400" y="80" />
        </Array>
      </mxGeometry>
    </mxCell>
    <mxCell id="INR5gjYaSOHBbctPgWJO-9" value="" style="endArrow=classic;html=1;edgeStyle=orthogonalEdgeStyle;" parent="1" source="INR5gjYaSOHBbctPgWJO-3" target="INR5gjYaSOHBbctPgWJO-2" edge="1">
      <mxGeometry width="50" height="50" relative="1" as="geometry">
        <mxPoint x="607" y="62" as="sourcePoint" />
        <mxPoint x="657" y="12" as="targetPoint" />
        <Array as="points">
          <mxPoint x="490" y="80" />
          <mxPoint x="440" y="80" />
        </Array>
      </mxGeometry>
    </mxCell>
    <mxCell id="INR5gjYaSOHBbctPgWJO-11" value="" style="shape=rhombus;html=1;dashed=0;whitespace=wrap;perimeter=rhombusPerimeter;" parent="1" vertex="1">
      <mxGeometry x="47.88" y="106.25" width="88.25" height="57.5" as="geometry" />
    </mxCell>
    <mxCell id="INR5gjYaSOHBbctPgWJO-12" value="" style="endArrow=classic;html=1;" parent="1" source="INR5gjYaSOHBbctPgWJO-11" target="SkLQpkn3maGRPMSLVxLG-40" edge="1">
      <mxGeometry width="50" height="50" relative="1" as="geometry">
        <mxPoint x="349" y="176.5" as="sourcePoint" />
        <mxPoint x="399" y="126.5" as="targetPoint" />
      </mxGeometry>
    </mxCell>
    <mxCell id="INR5gjYaSOHBbctPgWJO-14" value="" style="endArrow=classic;html=1;edgeStyle=orthogonalEdgeStyle;" parent="1" source="INR5gjYaSOHBbctPgWJO-2" target="INR5gjYaSOHBbctPgWJO-16" edge="1">
      <mxGeometry width="50" height="50" relative="1" as="geometry">
        <mxPoint x="400" y="140" as="sourcePoint" />
        <mxPoint x="150" y="10" as="targetPoint" />
        <Array as="points">
          <mxPoint x="350" y="10" />
          <mxPoint x="350" y="10" />
        </Array>
      </mxGeometry>
    </mxCell>
    <mxCell id="INR5gjYaSOHBbctPgWJO-16" value="просмотр &lt;br&gt;созданного&lt;br&gt;&amp;nbsp;обращ." style="html=1;dashed=0;whitespace=wrap;" parent="1" vertex="1">
      <mxGeometry x="43" y="1" width="100" height="50" as="geometry" />
    </mxCell>
    <mxCell id="INR5gjYaSOHBbctPgWJO-17" value="" style="endArrow=classic;html=1;" parent="1" source="INR5gjYaSOHBbctPgWJO-11" target="INR5gjYaSOHBbctPgWJO-16" edge="1">
      <mxGeometry width="50" height="50" relative="1" as="geometry">
        <mxPoint x="350" y="180" as="sourcePoint" />
        <mxPoint x="400" y="130" as="targetPoint" />
      </mxGeometry>
    </mxCell>
    <mxCell id="INR5gjYaSOHBbctPgWJO-19" value="" style="endArrow=classic;html=1;" parent="1" source="INR5gjYaSOHBbctPgWJO-11" target="INR5gjYaSOHBbctPgWJO-20" edge="1">
      <mxGeometry width="50" height="50" relative="1" as="geometry">
        <mxPoint x="350" y="180" as="sourcePoint" />
        <mxPoint x="200" y="200" as="targetPoint" />
      </mxGeometry>
    </mxCell>
    <mxCell id="INR5gjYaSOHBbctPgWJO-20" value="просмотр&lt;br&gt;заключения" style="html=1;dashed=0;whitespace=wrap;" parent="1" vertex="1">
      <mxGeometry x="42" y="211" width="100" height="50" as="geometry" />
    </mxCell>
    <mxCell id="INR5gjYaSOHBbctPgWJO-22" value="" style="endArrow=none;html=1;endFill=0;" parent="1" source="SkLQpkn3maGRPMSLVxLG-39" target="INR5gjYaSOHBbctPgWJO-11" edge="1">
      <mxGeometry width="50" height="50" relative="1" as="geometry">
        <mxPoint x="349" y="146.5" as="sourcePoint" />
        <mxPoint x="399" y="96.5" as="targetPoint" />
      </mxGeometry>
    </mxCell>
    <mxCell id="INR5gjYaSOHBbctPgWJO-23" value="заключение&amp;nbsp;&lt;br&gt;спечиалиста" style="html=1;dashed=0;whitespace=wrap;shape=partialRectangle;right=0;fillColor=#dae8fc;strokeColor=#6c8ebf;" parent="1" vertex="1">
      <mxGeometry x="180" y="211" width="110" height="50" as="geometry" />
    </mxCell>
    <mxCell id="INR5gjYaSOHBbctPgWJO-24" value="" style="endArrow=classic;html=1;" parent="1" source="INR5gjYaSOHBbctPgWJO-23" target="INR5gjYaSOHBbctPgWJO-20" edge="1">
      <mxGeometry width="50" height="50" relative="1" as="geometry">
        <mxPoint x="350" y="250" as="sourcePoint" />
        <mxPoint x="400" y="200" as="targetPoint" />
      </mxGeometry>
    </mxCell>
    <mxCell id="INR5gjYaSOHBbctPgWJO-30" value="выбор &lt;br&gt;обращения" style="html=1;dashed=0;whitespace=wrap;" parent="1" vertex="1">
      <mxGeometry x="850" y="111.25" width="100" height="50" as="geometry" />
    </mxCell>
    <mxCell id="INR5gjYaSOHBbctPgWJO-31" value="список обращений" style="html=1;dashed=0;whitespace=wrap;shape=partialRectangle;right=0;fillColor=#b1ddf0;strokeColor=#10739e;" parent="1" vertex="1">
      <mxGeometry x="550" y="1" width="120" height="49" as="geometry" />
    </mxCell>
    <mxCell id="INR5gjYaSOHBbctPgWJO-32" value="" style="endArrow=classic;html=1;edgeStyle=orthogonalEdgeStyle;" parent="1" source="INR5gjYaSOHBbctPgWJO-2" target="INR5gjYaSOHBbctPgWJO-31" edge="1">
      <mxGeometry width="50" height="50" relative="1" as="geometry">
        <mxPoint x="680" y="140" as="sourcePoint" />
        <mxPoint x="730" y="90" as="targetPoint" />
        <Array as="points">
          <mxPoint x="530" y="10" />
          <mxPoint x="530" y="10" />
        </Array>
      </mxGeometry>
    </mxCell>
    <mxCell id="INR5gjYaSOHBbctPgWJO-33" value="" style="endArrow=classic;html=1;" parent="1" source="INR5gjYaSOHBbctPgWJO-31" target="INR5gjYaSOHBbctPgWJO-2" edge="1">
      <mxGeometry width="50" height="50" relative="1" as="geometry">
        <mxPoint x="730" y="90" as="sourcePoint" />
        <mxPoint x="680" y="140" as="targetPoint" />
      </mxGeometry>
    </mxCell>
    <mxCell id="INR5gjYaSOHBbctPgWJO-34" value="" style="endArrow=classic;html=1;edgeStyle=orthogonalEdgeStyle;" parent="1" source="INR5gjYaSOHBbctPgWJO-31" target="INR5gjYaSOHBbctPgWJO-30" edge="1">
      <mxGeometry width="50" height="50" relative="1" as="geometry">
        <mxPoint x="680" y="140" as="sourcePoint" />
        <mxPoint x="730" y="90" as="targetPoint" />
        <Array as="points">
          <mxPoint x="900" y="10" />
        </Array>
      </mxGeometry>
    </mxCell>
    <mxCell id="INR5gjYaSOHBbctPgWJO-35" value="" style="endArrow=classic;html=1;" parent="1" source="INR5gjYaSOHBbctPgWJO-30" target="SkLQpkn3maGRPMSLVxLG-52" edge="1">
      <mxGeometry width="50" height="50" relative="1" as="geometry">
        <mxPoint x="680" y="140" as="sourcePoint" />
        <mxPoint x="730" y="90" as="targetPoint" />
      </mxGeometry>
    </mxCell>
    <mxCell id="INR5gjYaSOHBbctPgWJO-53" value="отмодерированное&lt;br&gt;обращение" style="html=1;dashed=0;whitespace=wrap;shape=partialRectangle;right=0;fillColor=#d5e8d4;strokeColor=#82b366;" parent="1" vertex="1">
      <mxGeometry x="594" y="190" width="106" height="48.75" as="geometry" />
    </mxCell>
    <mxCell id="INR5gjYaSOHBbctPgWJO-54" value="список&lt;br&gt;отмодерированных&lt;br&gt;обращений" style="html=1;dashed=0;whitespace=wrap;shape=partialRectangle;right=0;fillColor=#b1ddf0;strokeColor=#10739e;" parent="1" vertex="1">
      <mxGeometry x="594" y="110" width="110" height="50" as="geometry" />
    </mxCell>
    <mxCell id="INR5gjYaSOHBbctPgWJO-55" value="" style="endArrow=classic;html=1;" parent="1" source="SkLQpkn3maGRPMSLVxLG-52" target="INR5gjYaSOHBbctPgWJO-54" edge="1">
      <mxGeometry width="50" height="50" relative="1" as="geometry">
        <mxPoint x="830" y="190" as="sourcePoint" />
        <mxPoint x="880" y="140" as="targetPoint" />
      </mxGeometry>
    </mxCell>
    <mxCell id="INR5gjYaSOHBbctPgWJO-56" value="" style="endArrow=classic;html=1;edgeStyle=orthogonalEdgeStyle;" parent="1" source="INR5gjYaSOHBbctPgWJO-53" target="INR5gjYaSOHBbctPgWJO-54" edge="1">
      <mxGeometry width="50" height="50" relative="1" as="geometry">
        <mxPoint x="760" y="190" as="sourcePoint" />
        <mxPoint x="810" y="140" as="targetPoint" />
        <Array as="points">
          <mxPoint x="620" y="175" />
          <mxPoint x="620" y="175" />
        </Array>
      </mxGeometry>
    </mxCell>
    <mxCell id="INR5gjYaSOHBbctPgWJO-57" value="" style="endArrow=classic;html=1;edgeStyle=orthogonalEdgeStyle;" parent="1" source="INR5gjYaSOHBbctPgWJO-54" target="INR5gjYaSOHBbctPgWJO-53" edge="1">
      <mxGeometry width="50" height="50" relative="1" as="geometry">
        <mxPoint x="810" y="140" as="sourcePoint" />
        <mxPoint x="760" y="190" as="targetPoint" />
        <Array as="points">
          <mxPoint x="670" y="175" />
          <mxPoint x="670" y="175" />
        </Array>
      </mxGeometry>
    </mxCell>
    <mxCell id="INR5gjYaSOHBbctPgWJO-58" value="" style="endArrow=none;html=1;endFill=0;" parent="1" source="SkLQpkn3maGRPMSLVxLG-86" target="SkLQpkn3maGRPMSLVxLG-100" edge="1">
      <mxGeometry width="50" height="50" relative="1" as="geometry">
        <mxPoint x="770" y="430" as="sourcePoint" />
        <mxPoint x="820" y="380" as="targetPoint" />
      </mxGeometry>
    </mxCell>
    <mxCell id="INR5gjYaSOHBbctPgWJO-59" value="" style="endArrow=classic;html=1;edgeStyle=orthogonalEdgeStyle;" parent="1" source="INR5gjYaSOHBbctPgWJO-53" target="SkLQpkn3maGRPMSLVxLG-100" edge="1">
      <mxGeometry width="50" height="50" relative="1" as="geometry">
        <mxPoint x="770" y="290" as="sourcePoint" />
        <mxPoint x="820" y="240" as="targetPoint" />
      </mxGeometry>
    </mxCell>
    <mxCell id="INR5gjYaSOHBbctPgWJO-60" value="" style="shape=rhombus;html=1;dashed=0;whitespace=wrap;perimeter=rhombusPerimeter;" parent="1" vertex="1">
      <mxGeometry x="565.88" y="462.5" width="88.25" height="57.5" as="geometry" />
    </mxCell>
    <mxCell id="INR5gjYaSOHBbctPgWJO-61" value="" style="endArrow=classic;html=1;edgeStyle=orthogonalEdgeStyle;" parent="1" source="INR5gjYaSOHBbctPgWJO-60" target="SkLQpkn3maGRPMSLVxLG-74" edge="1">
      <mxGeometry width="50" height="50" relative="1" as="geometry">
        <mxPoint x="300" y="570" as="sourcePoint" />
        <mxPoint x="175" y="460" as="targetPoint" />
      </mxGeometry>
    </mxCell>
    <mxCell id="INR5gjYaSOHBbctPgWJO-62" value="" style="endArrow=classic;html=1;" parent="1" source="eZzGpEVOvhuEacqEOxfQ-1" target="INR5gjYaSOHBbctPgWJO-60" edge="1">
      <mxGeometry width="50" height="50" relative="1" as="geometry">
        <mxPoint x="680" y="520" as="sourcePoint" />
        <mxPoint x="620" y="520" as="targetPoint" />
      </mxGeometry>
    </mxCell>
    <mxCell id="INR5gjYaSOHBbctPgWJO-63" value="" style="endArrow=classic;html=1;" parent="1" source="INR5gjYaSOHBbctPgWJO-60" target="SkLQpkn3maGRPMSLVxLG-89" edge="1">
      <mxGeometry width="50" height="50" relative="1" as="geometry">
        <mxPoint x="431.88" y="570" as="sourcePoint" />
        <mxPoint x="481.88" y="520" as="targetPoint" />
      </mxGeometry>
    </mxCell>
    <mxCell id="INR5gjYaSOHBbctPgWJO-64" value="" style="endArrow=classic;html=1;" parent="1" source="SkLQpkn3maGRPMSLVxLG-89" target="INR5gjYaSOHBbctPgWJO-75" edge="1">
      <mxGeometry width="50" height="50" relative="1" as="geometry">
        <mxPoint x="431.88" y="570" as="sourcePoint" />
        <mxPoint x="521.88" y="390" as="targetPoint" />
      </mxGeometry>
    </mxCell>
    <mxCell id="INR5gjYaSOHBbctPgWJO-67" value="список&lt;br&gt;заключений" style="html=1;dashed=0;whitespace=wrap;shape=partialRectangle;right=0;fillColor=#dae8fc;strokeColor=#6c8ebf;" parent="1" vertex="1">
      <mxGeometry x="322" y="211" width="114" height="49" as="geometry" />
    </mxCell>
    <mxCell id="INR5gjYaSOHBbctPgWJO-68" value="" style="endArrow=classic;html=1;edgeStyle=orthogonalEdgeStyle;" parent="1" source="INR5gjYaSOHBbctPgWJO-23" target="INR5gjYaSOHBbctPgWJO-67" edge="1">
      <mxGeometry width="50" height="50" relative="1" as="geometry">
        <mxPoint x="420" y="250" as="sourcePoint" />
        <mxPoint x="470" y="200" as="targetPoint" />
        <Array as="points">
          <mxPoint x="300" y="230" />
          <mxPoint x="300" y="230" />
        </Array>
      </mxGeometry>
    </mxCell>
    <mxCell id="INR5gjYaSOHBbctPgWJO-69" value="" style="endArrow=classic;html=1;edgeStyle=orthogonalEdgeStyle;" parent="1" source="INR5gjYaSOHBbctPgWJO-67" target="INR5gjYaSOHBbctPgWJO-23" edge="1">
      <mxGeometry width="50" height="50" relative="1" as="geometry">
        <mxPoint x="420" y="250" as="sourcePoint" />
        <mxPoint x="470" y="200" as="targetPoint" />
        <Array as="points">
          <mxPoint x="320" y="250" />
          <mxPoint x="320" y="250" />
        </Array>
      </mxGeometry>
    </mxCell>
    <mxCell id="INR5gjYaSOHBbctPgWJO-71" value="" style="endArrow=classic;html=1;edgeStyle=orthogonalEdgeStyle;" parent="1" source="INR5gjYaSOHBbctPgWJO-73" target="INR5gjYaSOHBbctPgWJO-23" edge="1">
      <mxGeometry width="50" height="50" relative="1" as="geometry">
        <mxPoint x="285" y="390" as="sourcePoint" />
        <mxPoint x="379" y="337.49674220963163" as="targetPoint" />
        <Array as="points">
          <mxPoint x="200" y="362" />
        </Array>
      </mxGeometry>
    </mxCell>
    <mxCell id="INR5gjYaSOHBbctPgWJO-72" value="" style="endArrow=classic;html=1;edgeStyle=orthogonalEdgeStyle;" parent="1" source="INR5gjYaSOHBbctPgWJO-75" target="INR5gjYaSOHBbctPgWJO-23" edge="1">
      <mxGeometry width="50" height="50" relative="1" as="geometry">
        <mxPoint x="770" y="309" as="sourcePoint" />
        <mxPoint x="422.7363043478258" y="309" as="targetPoint" />
        <Array as="points">
          <mxPoint x="609" y="300" />
          <mxPoint x="235" y="300" />
        </Array>
      </mxGeometry>
    </mxCell>
    <mxCell id="INR5gjYaSOHBbctPgWJO-73" value="план питания" style="html=1;dashed=0;whitespace=wrap;shape=partialRectangle;right=0;fillColor=#d0cee2;strokeColor=#56517e;" parent="1" vertex="1">
      <mxGeometry x="70" y="337.5" width="110" height="49" as="geometry" />
    </mxCell>
    <mxCell id="INR5gjYaSOHBbctPgWJO-75" value="план лечения" style="html=1;dashed=0;whitespace=wrap;shape=partialRectangle;right=0;fillColor=#d0cee2;strokeColor=#56517e;" parent="1" vertex="1">
      <mxGeometry x="554.07" y="320" width="110" height="54" as="geometry" />
    </mxCell>
    <mxCell id="eZzGpEVOvhuEacqEOxfQ-1" value="составление заключения" style="rounded=0;whiteSpace=wrap;html=1;" vertex="1" parent="1">
      <mxGeometry x="710" y="470" width="110" height="45" as="geometry" />
    </mxCell>
    <mxCell id="eZzGpEVOvhuEacqEOxfQ-2" value="" style="endArrow=classic;html=1;" edge="1" parent="1" source="SkLQpkn3maGRPMSLVxLG-100" target="eZzGpEVOvhuEacqEOxfQ-1">
      <mxGeometry width="50" height="50" relative="1" as="geometry">
        <mxPoint x="480" y="470" as="sourcePoint" />
        <mxPoint x="530" y="420" as="targetPoint" />
      </mxGeometry>
    </mxCell>
    <mxCell id="eZzGpEVOvhuEacqEOxfQ-4" value="" style="endArrow=classic;html=1;edgeStyle=orthogonalEdgeStyle;" edge="1" parent="1" source="eZzGpEVOvhuEacqEOxfQ-1" target="INR5gjYaSOHBbctPgWJO-23">
      <mxGeometry width="50" height="50" relative="1" as="geometry">
        <mxPoint x="300" y="370" as="sourcePoint" />
        <mxPoint x="350" y="320" as="targetPoint" />
        <Array as="points">
          <mxPoint x="680" y="480" />
          <mxPoint x="680" y="280" />
          <mxPoint x="270" y="280" />
        </Array>
      </mxGeometry>
    </mxCell>
  </root>
</mxGraphModel>
